<svg width="16" height="16" viewBox="0 0 16 16" fill="none" xmlns="http://www.w3.org/2000/svg">
<path fill-rule="evenodd" clip-rule="evenodd" d="M16 7H14V5H13V7H11V8H13V10H14V8H16V7ZM6 2C7.38071 2 8.5 3.11929 8.5 4.5C8.5 5.88071 7.38071 7 6 7C4.61929 7 3.5 5.88071 3.5 4.5C3.5 3.11929 4.61929 2 6 2V2ZM6 1C4.067 1 2.5 2.567 2.5 4.5C2.5 6.433 4.067 8 6 8C7.933 8 9.5 6.433 9.5 4.5C9.5 2.567 7.933 1 6 1ZM11 15H10V12.5C10 11.1193 8.88071 10 7.5 10H4.5C3.11929 10 2 11.1193 2 12.5V15H1V12.5C1 10.567 2.567 9 4.5 9H7.5C9.433 9 11 10.567 11 12.5V15Z" fill="white"/>
</svg>
