<svg width="131" height="32" viewBox="0 0 131 32" fill="none" xmlns="http://www.w3.org/2000/svg">
<path d="M109.741 0V23.9652H106.292V0H109.741Z" fill="#555354"/>
<path d="M77.0682 24.3881C75.5829 24.3881 74.1934 24.0357 72.8999 23.3309C71.6305 22.626 70.6363 21.6158 69.9176 20.3002L72.3968 18.4324C72.924 19.3957 73.6186 20.1357 74.4811 20.6526C75.3672 21.1694 76.2655 21.4279 77.176 21.4279C78.1821 21.4279 78.9965 21.1812 79.6192 20.6878C80.2662 20.171 80.5896 19.5484 80.5896 18.8201C80.5896 17.8098 80.0026 17.011 78.8288 16.4237C78.5175 16.2593 77.7148 15.9069 76.4213 15.3665C75.2236 14.8731 74.4332 14.5207 74.0499 14.3093C72.0856 13.2521 71.1033 11.725 71.1033 9.72803C71.1033 8.20093 71.6781 6.94403 72.8281 5.95728C73.9539 4.94707 75.475 4.44195 77.3917 4.44195C78.6372 4.44195 79.811 4.70037 80.9131 5.21725C82.0148 5.73411 82.8773 6.47416 83.5001 7.43739L81.3083 9.48133C80.2542 8.02472 78.8767 7.29643 77.176 7.29643C76.3376 7.29643 75.6668 7.51963 75.1638 7.966C74.6607 8.38888 74.4091 8.92923 74.4091 9.58707C74.4091 10.5738 74.9482 11.3138 76.0261 11.8072L78.1461 12.7235C79.2961 13.1698 80.1583 13.5575 80.7332 13.8864C82.9131 14.9671 84.0032 16.5529 84.0032 18.6439C84.0032 20.2649 83.3563 21.6275 82.0628 22.7318C80.7454 23.8359 79.0804 24.3881 77.0682 24.3881Z" fill="#555354"/>
<path d="M58.8194 23.9652H62.269V13.9569C62.269 11.9834 62.748 10.4681 63.7061 9.41085C64.6884 8.35365 65.97 7.82504 67.551 7.82504C68.1979 7.82504 68.8686 7.93075 69.5632 8.14219L69.8867 4.86483C69.0721 4.67688 68.3176 4.58291 67.6228 4.58291C65.0598 4.58291 63.2153 5.67536 62.0891 7.86027V5.07627H58.8194V23.9652Z" fill="#555354"/>
<path d="M41.6826 22.2384C43.1918 23.695 45.2043 24.4233 47.7196 24.4233C50.2826 24.4233 52.2948 23.7067 53.756 22.2736C55.2414 20.8405 55.9839 18.867 55.9839 16.3532V5.07627H52.5703V16.2475C52.5703 17.7981 52.1393 19.0315 51.2768 19.9478C50.4145 20.8405 49.2288 21.2869 47.7196 21.2869C46.2104 21.2869 45.0244 20.8405 44.1622 19.9478C43.3237 19.0315 42.9044 17.7981 42.9044 16.2475V5.07627H39.455V16.3532C39.455 18.8201 40.1976 20.7818 41.6826 22.2384Z" fill="#555354"/>
<path fill-rule="evenodd" clip-rule="evenodd" d="M104.369 15.8951C104.441 14.9789 104.477 14.4033 104.477 14.1683C104.477 11.2316 103.602 8.90573 101.854 7.19072C100.129 5.47568 97.9011 4.61816 95.1702 4.61816C92.2957 4.61816 89.9481 5.54616 88.1274 7.40216C86.3308 9.28165 85.4325 11.631 85.4325 14.4502C85.4325 15.7189 85.6362 16.9288 86.0433 18.08C86.4505 19.2312 87.0495 20.2884 87.8399 21.2517C88.6304 22.2149 89.6964 22.9785 91.0379 23.5423C92.4035 24.1061 93.9606 24.3881 95.7093 24.3881C97.2423 24.3881 98.7515 24.1414 100.237 23.648C101.722 23.1311 102.968 22.4968 103.974 21.745L102.5 19.1725C101.614 19.8068 100.56 20.3237 99.3385 20.723C98.1168 21.0989 96.931 21.2869 95.7811 21.2869C93.8409 21.2869 92.3076 20.8053 91.1817 19.842C90.0559 18.8788 89.3372 17.5631 89.0257 15.8951H104.369ZM100.919 12.9701H89.0257C89.3134 11.3961 90.0199 10.1157 91.1457 9.12893C92.2718 8.11869 93.6131 7.6136 95.1702 7.6136C96.7753 7.6136 98.1048 8.10696 99.1589 9.09368C100.237 10.0569 100.824 11.3491 100.919 12.9701Z" fill="#555354"/>
<path d="M127.191 5.07627L122.017 19.2429L116.052 5.07627H112.063L120.436 23.8947L119.717 25.551C118.759 27.7595 117.489 28.8635 115.908 28.8635C115.213 28.8635 114.435 28.6757 113.573 28.2997L113.141 31.26C113.98 31.7533 115.01 32 116.232 32C117.765 32 119.058 31.5301 120.112 30.5904C121.19 29.6741 122.125 28.1704 122.915 26.0796L131 5.07627H127.191Z" fill="#555354"/>
<path d="M10.169 24.3801C7.17459 24.3801 4.73113 23.4521 2.83869 21.5961C0.94623 19.7401 0 17.379 0 14.5127C0 11.6465 0.958206 9.27365 2.87461 7.39416C4.79103 5.53816 7.28238 4.61016 10.3486 4.61016C12.2411 4.61016 13.9778 5.05656 15.5589 5.94931C16.1908 6.30083 16.756 6.69971 17.2542 7.14592C17.1302 7.26005 17.0084 7.37805 16.8887 7.49989C16.1877 8.19605 15.6166 8.95507 15.1752 9.77691C14.7358 9.32973 14.2409 8.94661 13.6904 8.62757C12.6603 8.01675 11.5464 7.71133 10.3486 7.71133C8.38431 7.71133 6.74337 8.35741 5.42585 9.64955C4.13226 10.9652 3.48549 12.5863 3.48549 14.5127C3.48549 16.4157 4.12029 18.025 5.38991 19.3407C6.63558 20.6328 8.2286 21.2789 10.169 21.2789C11.3667 21.2789 12.5166 20.9618 13.6185 20.3274C14.2012 19.9991 14.7069 19.6236 15.1356 19.2009C15.5822 20.0626 16.1666 20.861 16.8887 21.5961C16.9721 21.679 17.0566 21.7601 17.142 21.8393C16.6288 22.2896 16.0532 22.6901 15.4152 23.0409C13.7862 23.9337 12.0375 24.3801 10.169 24.3801Z" fill="#555354"/>
<path d="M33.7643 13.3632C33.6358 12.6043 33.3847 11.8864 33.0312 11.2298H31.4242V13.3632H33.7643Z" fill="#555354"/>
<path d="M32.4848 18.6965C32.9583 18.0581 33.3259 17.3386 33.5619 16.5632H27.0899V18.6965H32.4848Z" fill="#555354"/>
<path d="M33.7011 16.0298C33.8068 15.5475 33.8623 15.0468 33.8623 14.5333C33.8623 14.3187 33.8526 14.1063 33.8336 13.8965H29.257V16.0298H33.7011Z" fill="#555354"/>
<path fill-rule="evenodd" clip-rule="evenodd" d="M27.4575 24.3622C24.5148 24.3622 22.0865 23.4084 20.1725 21.5008C18.2825 19.5697 17.3375 17.2028 17.3375 14.4003C17.3375 11.5978 18.2825 9.25453 20.1725 7.37048C22.0625 5.43936 24.4909 4.47379 27.4575 4.47379C30.3761 4.47379 32.7806 5.43936 34.6707 7.37048C36.5846 9.32517 37.5417 11.6685 37.5417 14.4003C37.5417 17.1793 36.5846 19.5461 34.6707 21.5008C32.7568 23.4084 30.3523 24.3622 27.4575 24.3622ZM31.1766 8.77773C30.0955 8.00443 28.8556 7.61779 27.4575 7.61779C25.6153 7.61779 24.0483 8.28896 22.7563 9.63133C21.4644 10.9502 20.8185 12.5398 20.8185 14.4003C20.8185 16.2844 21.4644 17.8976 22.7563 19.2399C23.4084 19.9174 24.1305 20.424 24.9227 20.7595V19.2298H32.0476C31.3346 20.0186 30.4444 20.649 29.4388 21.0607C32.3082 20.2346 34.4041 17.6249 34.4041 14.5333C34.4041 12.1095 33.1157 9.98187 31.1766 8.77773Z" fill="#555354"/>
</svg>
