<svg width="64" height="64" viewBox="0 0 64 64" fill="none" xmlns="http://www.w3.org/2000/svg">
<path fill-rule="evenodd" clip-rule="evenodd" d="M9.33845 10.1465C14.8447 4.35563 21.3239 1.12033 29.394 0.132084C32.5179 -0.250509 37.8774 0.227681 41.1872 1.18406C52.9983 4.59675 61.4953 13.7987 64.0466 25.9393C64.6598 28.8568 64.7 34.5853 64.1288 37.6471C62.9358 44.0426 59.7782 50.076 55.2634 54.5875C49.064 60.7823 41.2924 64.0158 32.6415 63.9999C28.9997 63.993 26.7634 63.6756 23.4065 62.6888C12.3545 59.4399 3.95941 50.3275 1.27051 38.6619C0.730411 36.3187 0.50532 30.2776 0.864775 27.7736C1.83658 21.0034 4.72176 15.0021 9.33845 10.1465ZM62.7543 29.8329C61.7817 15.9142 51.4318 4.57889 37.4644 2.13577C35.3099 1.75886 30.1135 1.75014 27.7703 2.11954C16.8316 3.84354 7.41939 11.8973 3.84981 22.588C2.82929 25.6438 2.41585 28.3892 2.42214 32.0655C2.4327 38.1799 3.94764 43.4414 7.08227 48.2505C11.7738 55.4483 18.13 59.8259 26.654 61.7299C29.4639 62.3577 35.2506 62.4091 38.1216 61.8318C44.2597 60.5976 49.6739 57.7173 53.9439 53.4142C60.2923 47.0171 63.3778 38.7583 62.7543 29.8329ZM8.24121 16.7415C12.7818 9.46248 20.5611 4.50257 29.1911 3.38402C30.721 3.18552 35.0558 3.27422 36.8023 3.5395C46.0323 4.94119 53.8989 10.5912 58.2066 18.9128C60.2684 22.8957 61.1227 26.1969 61.2952 30.8477C61.4423 34.8104 61.0599 37.6479 59.9187 41.0616C58.3822 45.658 56.3757 48.8736 52.8595 52.3748C48.5129 56.7029 43.6969 59.259 37.7157 60.4127C35.1291 60.9116 30.2501 60.9077 27.5673 60.4048C21.0645 59.1858 15.297 55.9566 11.1276 51.2004C2.5492 41.4148 1.40101 27.7066 8.24121 16.7415ZM34.9756 5.12873L33.728 4.99822C32.4946 4.86934 32.2969 4.87015 30.5103 5.0106C21.0576 5.75427 12.0081 12.015 8.10847 20.5092C1.95978 33.9028 7.40072 49.6128 20.4696 56.1997C22.359 57.152 25.425 58.2462 27.0599 58.5517C27.4506 58.6248 27.93 58.7295 28.1255 58.7845C28.4588 58.8783 28.4807 58.4634 28.4807 52.0829V45.2813L34.316 45.219L40.1513 45.1569L41.1661 44.6168C43.1808 43.5447 44.3576 41.7533 44.4808 39.5708C44.6247 37.0256 43.6979 35.2022 41.571 33.8461C40.3258 33.0523 40.2528 32.9628 40.2528 32.2311C40.2528 31.3149 40.3904 31.2883 41.7817 31.9362C43.2372 32.6139 44.8167 34.2328 45.5484 35.7962C47.4451 39.8495 45.7179 44.346 41.4955 46.3467L40.1513 46.9836L35.2293 47.0502L30.3074 47.1167V53.0884V59.0601L32.6922 59.0593C37.7011 59.0577 42.1838 57.8143 46.5202 55.2244C56.2851 49.392 61.3528 37.9237 59.1104 26.7319C57.7047 19.7162 53.389 13.3398 47.3562 9.36546C44.5104 7.49066 39.8079 5.62092 37.4754 5.43643L36.7008 5.37533V12.0063V18.6372L31.1193 18.7042C25.6026 18.7703 25.5247 18.7772 24.4213 19.2968C22.317 20.2879 21.2459 21.6034 20.7594 23.7946C20.0356 27.0547 22.3628 30.4513 25.709 31.0184C26.5292 31.1574 26.5541 31.185 26.6148 32.0194C26.6724 32.8118 26.6392 32.8774 26.1796 32.8774C24.3761 32.8774 21.4994 31.2218 20.3084 29.4984C18.4943 26.8732 18.4943 23.0501 20.3084 20.4249C21.1651 19.1852 22.92 17.9057 24.3919 17.4476C25.519 17.0967 26.2685 17.0459 30.3287 17.0459H34.9756V11.0872V5.12873ZM9.86555 20.4203C13.4974 13.2892 20.3121 8.2463 28.2619 6.80666C29.1078 6.65342 30.6465 6.51986 31.6813 6.50992L33.5626 6.49165L33.508 11.0077L33.4534 15.5237L28.9881 15.6357C24.1414 15.7573 23.6354 15.8572 21.7606 17.0601C20.3648 17.9558 19.0939 19.4127 18.3112 21.0141C17.6394 22.3886 17.6219 22.4891 17.6219 24.9617C17.6219 27.4342 17.6394 27.5347 18.3112 28.9092C19.1014 30.526 20.3667 31.9687 21.8031 32.8904C22.9403 33.6202 24.9432 34.2981 25.9617 34.2981C26.6497 34.2981 26.654 34.3038 26.654 35.2377V36.1772L25.6369 36.0422C16.475 34.8269 12.4861 24.1329 18.6932 17.4265C19.9755 16.041 21.3358 15.1344 23.1672 14.4451C24.3803 13.9886 24.902 13.9253 28.131 13.8439L31.7393 13.753L31.6829 10.9914L31.6267 8.22986L30.6118 8.28994C25.5535 8.58932 20.2256 10.9995 16.2349 14.794C6.27669 24.2622 6.28318 39.8219 16.2491 49.3433C18.5812 51.5713 21.0835 53.1562 24.222 54.3933L25.2332 54.7919V48.4013V42.0109H32.2457C39.9918 42.0109 40.1001 41.9949 40.8698 40.7324C41.4578 39.7685 41.4077 38.2203 40.7602 37.3426C40.404 36.8598 40.2528 36.3944 40.2528 35.781C40.2528 35.3004 40.3072 34.907 40.3737 34.907C40.668 34.907 41.6139 35.6132 42.0586 36.165C44.0535 38.64 43.0401 42.2544 39.9946 43.5268C39.3829 43.7824 38.1693 43.8376 33.1554 43.8376H27.0599V50.434C27.0599 54.0621 26.9962 57.0305 26.9182 57.0305C26.3631 57.0305 22.9912 55.8206 21.5337 55.0984C18.7429 53.7158 16.9765 52.4408 14.6596 50.1369C9.55745 45.0631 7.08572 39.1681 7.08267 32.0655C7.08084 27.6757 7.88581 24.3073 9.86555 20.4203ZM38.1216 20.1919L38.1752 13.6462C38.2046 10.046 38.2913 7.10055 38.3676 7.10055C38.9144 7.10055 42.2871 8.308 43.7117 9.01392C50.6301 12.4414 55.4282 18.3317 57.4465 25.875C58.1244 28.4091 58.3103 33.5382 57.8253 36.3199C56.9015 41.6151 54.4799 46.2515 50.6069 50.1403C46.0962 54.6693 40.2787 57.2637 33.91 57.5864L31.7282 57.6968V53.1014V48.5058H35.6397C38.8379 48.5058 39.801 48.4366 40.9207 48.1261C43.1818 47.4991 45.5246 45.6592 46.6164 43.6535C47.6487 41.7568 48.0299 39.0518 47.5551 36.9939C46.8431 33.9086 44.4016 31.2287 41.3717 30.2065C40.3849 29.8737 40.3524 29.8375 40.2905 29.0076L40.2266 28.1517L40.9544 28.2698C42.2337 28.4774 44.6492 29.7906 45.9257 30.9723C48.9103 33.7357 50.1876 37.9162 49.1989 41.6859C48.1419 45.7169 45.2973 48.6812 41.3691 49.8456C40.4306 50.1239 39.395 50.2095 36.8541 50.2189L33.5567 50.2311L33.5559 53.0219L33.5549 55.8127L34.519 55.8094C35.7997 55.8053 38.7715 55.1634 40.6587 54.4834C49.0209 51.4704 54.8912 44.2289 56.1989 35.313C57.439 26.8586 53.8305 18.1951 46.8904 12.9657C45.3738 11.823 41.2481 9.63318 40.3543 9.49678C39.9568 9.43589 39.9473 9.56437 39.8947 15.6759L39.8409 21.9171L33.2983 21.9184C29.5308 21.919 26.4433 22.006 26.0193 22.1238C24.4782 22.552 23.5309 24.2367 23.9831 25.7457C24.2707 26.7058 25.0804 27.5495 25.9223 27.7661C26.4861 27.9112 26.559 28.0179 26.6148 28.7791C26.6688 29.5144 26.6223 29.6299 26.273 29.6299C26.0506 29.6299 25.6113 29.5335 25.2971 29.4156C21.4245 27.9629 21.0805 22.7337 24.7258 20.7296C25.2427 20.4454 26.2996 20.3797 31.7282 20.2934L38.1216 20.1919ZM30.7293 25.3709H28.2937V38.7667H30.7293V25.3709ZM32.15 25.3709H34.5857V38.7667H32.15V25.3709ZM38.4422 25.3709H36.0066V38.7667H38.4422V25.3709Z" fill="white"/>
</svg>
