<svg width="48" height="56" viewBox="0 0 48 56" fill="none" xmlns="http://www.w3.org/2000/svg">
<path fill-rule="evenodd" clip-rule="evenodd" d="M0.0508198 17.859C0.101215 35.5421 0.104754 35.7339 0.411938 37.3467C1.93158 45.3221 6.91929 51.3937 14.305 54.259C19.8149 56.3965 26.5423 56.5766 32.2371 54.7393C32.9679 54.5034 34.9503 53.7275 36.6424 53.015C38.3345 52.3024 39.7825 51.7201 39.8603 51.7208C39.9382 51.7216 41.7601 52.5324 43.9089 53.5229C46.0577 54.5133 47.8573 55.3236 47.908 55.3236C47.9585 55.3236 48 42.8758 48 27.6618V0H24H0L0.0508198 17.859ZM23.9349 26.8776C23.9349 36.0922 23.887 43.6286 23.8287 43.6252C23.7704 43.6216 21.3974 42.5451 18.5556 41.2326L13.3887 38.8464L13.3526 24.4851L13.3165 10.1236H18.6257H23.9349V26.8776ZM37.7754 36.2097L37.7369 38.9623L32.6511 41.2969C29.8541 42.5809 27.5129 43.6315 27.4488 43.6315C27.3848 43.6315 27.3323 42.364 27.3323 40.8151V37.9986L32.4638 35.6361C35.2863 34.3367 37.6445 33.3149 37.7047 33.3654C37.7648 33.4159 37.7967 34.6959 37.7754 36.2097Z" fill="white"/>
</svg>
