<svg width="56" height="56" viewBox="0 0 56 56" fill="none" xmlns="http://www.w3.org/2000/svg">
<path fill-rule="evenodd" clip-rule="evenodd" d="M25.1519 0.0549731C15.8993 0.960274 7.43286 6.6846 3.16304 14.9221C1.64356 17.8536 0.878924 20.1348 0.276658 23.5334C0.0352265 24.8958 0.010317 25.2822 0.00113977 27.8061C-0.00894507 30.6316 0.0403698 31.2389 0.456672 33.4062C1.57377 39.2228 4.7515 44.8587 9.13165 48.7923C12.8109 52.0965 17.258 54.3974 21.8779 55.3872C24.37 55.9212 25.1362 55.9989 27.9252 56C30.5859 56.0011 31.6487 55.906 33.6232 55.4899C41.9002 53.7456 48.7546 48.6013 52.7628 41.1253C56.0374 35.0173 56.8811 27.4723 55.0493 20.677C53.5032 14.9417 50.1373 9.80663 45.4729 6.06727C42.1323 3.38931 37.8045 1.33049 33.8753 0.550406C31.6584 0.110167 30.9984 0.0431675 28.5303 0.00754872C27.1437 -0.012531 25.6234 0.00886047 25.1519 0.0549731ZM28.8381 8.38229C29.0477 8.77077 29.8396 10.2011 30.5977 11.5607C31.3559 12.9204 32.1372 14.328 32.3339 14.6887C32.5306 15.0495 34.1776 18.0236 35.994 21.2979C37.8105 24.5722 39.4342 27.5009 39.6023 27.8061C39.7704 28.1113 40.4376 29.3146 41.0849 30.48C41.7323 31.6455 42.3992 32.8487 42.5669 33.154C42.7346 33.4592 43.2118 34.3219 43.6273 35.0711C44.0429 35.8203 44.4369 36.5354 44.5028 36.6603L44.6227 36.8874H42.0584H39.4942L38.8079 35.6513C38.4305 34.9714 37.9349 34.0747 37.7065 33.6585C37.4782 33.2422 36.7087 31.8574 35.9965 30.5809C35.2844 29.3045 34.2598 27.4656 33.7198 26.4944C33.1798 25.5232 32.7062 24.7286 32.6674 24.7286C32.6287 24.7286 32.232 25.3643 31.7857 26.1412C30.3326 28.6714 27.0429 34.4076 26.8669 34.718C26.7726 34.8844 26.4564 35.4407 26.1643 35.954L25.6335 36.8874H23.0806H20.5277L21.7927 34.6927C23.5561 31.6334 25.1521 28.8625 26.3115 26.8475C27.2219 25.2652 29.3106 21.6402 29.858 20.6924C29.9862 20.4705 30.0916 20.2331 30.0923 20.1651C30.0939 20.0032 28.2149 16.5679 28.1046 16.5311C28.058 16.5156 27.7654 16.946 27.4544 17.4878C26.9408 18.3822 26.0814 19.8772 22.6832 25.788C22.0609 26.8702 21.289 28.2097 20.9678 28.7647C20.6465 29.3196 20.2991 29.9229 20.1958 30.1054C20.0925 30.2877 19.3871 31.5137 18.6283 32.8298C17.8696 34.1457 17.0263 35.6198 16.7545 36.1054L16.2602 36.9883H13.7979C12.4437 36.9883 11.3357 36.9584 11.3357 36.9219C11.3357 36.8853 11.6948 36.2383 12.1337 35.484C12.5726 34.7297 14.2145 31.8876 15.7824 29.1683C19.1469 23.3331 19.8225 22.1617 22.0966 18.2203C23.0413 16.5832 24.2452 14.4945 24.772 13.5788C25.2989 12.6631 25.9402 11.5582 26.1973 11.1235C26.4544 10.6888 26.6646 10.318 26.6646 10.2995C26.6646 10.2654 27.8736 8.18058 28.1484 7.74085C28.3262 7.4563 28.3509 7.47941 28.8381 8.38229ZM44.6157 41.8821V44.0515H27.9757C18.8237 44.0515 11.3292 44.0175 11.3213 43.9758C11.2841 43.7802 11.27 39.8548 11.3062 39.7883C11.329 39.7467 18.8329 39.7126 27.9816 39.7126H44.6157V41.8821Z" fill="white"/>
</svg>
