<svg width="20" height="20" viewBox="0 0 20 20" fill="none" xmlns="http://www.w3.org/2000/svg">
<path fill-rule="evenodd" clip-rule="evenodd" d="M1.25 10C1.25 5.16751 5.16751 1.25 10 1.25C14.8325 1.25 18.75 5.16751 18.75 10C18.75 14.8325 14.8325 18.75 10 18.75C5.16751 18.75 1.25 14.8325 1.25 10ZM17.5 10C17.5 5.85786 14.1421 2.5 10 2.5C5.85786 2.5 2.5 5.85786 2.5 10C2.5 14.1421 5.85786 17.5 10 17.5C14.1421 17.5 17.5 14.1421 17.5 10ZM14.38 6.51125L13.4987 5.63L10.8112 8.3175C10.0942 7.97506 9.23923 8.12175 8.67736 8.68362C8.1155 9.24548 7.96881 10.1005 8.31125 10.8175L5.63 13.4988L6.51125 14.38L9.19875 11.6925C9.91576 12.0349 10.7708 11.8882 11.3326 11.3264C11.8945 10.7645 12.0412 9.90952 11.6987 9.1925L14.38 6.51125ZM10.63 10.005C10.63 10.3502 10.3502 10.63 10.005 10.63C9.65982 10.63 9.38 10.3502 9.38 10.005C9.38 9.65982 9.65982 9.38 10.005 9.38C10.3502 9.38 10.63 9.65982 10.63 10.005ZM9.9975 5.675C10.5153 5.675 10.935 5.25527 10.935 4.7375C10.935 4.21973 10.5153 3.8 9.9975 3.8C9.47973 3.8 9.06 4.21973 9.06 4.7375C9.06 5.25527 9.47973 5.675 9.9975 5.675Z" fill="#208458"/>
</svg>
