<svg width="16" height="16" viewBox="0 0 16 16" fill="none" xmlns="http://www.w3.org/2000/svg">
<path fill-rule="evenodd" clip-rule="evenodd" d="M14.445 5.945C14.4469 4.08857 13.7071 2.30831 12.39 1L11.685 1.705C13.8938 4.06384 13.8376 7.74823 11.558 10.0386C9.27832 12.3291 5.59423 12.4026 3.225 10.205L2.5 10.89C3.80831 12.2071 5.58857 12.9469 7.445 12.945V14.445H5.445V15.445H10.445V14.445H8.445V12.865C11.8859 12.3683 14.4409 9.42158 14.445 5.945ZM7 2C8.933 2 10.5 3.567 10.5 5.5C10.5 7.433 8.933 9 7 9C5.067 9 3.5 7.433 3.5 5.5C3.5 3.567 5.067 2 7 2ZM2.5 5.5C2.5 3.01472 4.51472 1 7 1C9.48528 1 11.5 3.01472 11.5 5.5C11.5 7.98528 9.48528 10 7 10C4.51472 10 2.5 7.98528 2.5 5.5Z" fill="white"/>
</svg>
