<svg width="80" height="24" viewBox="0 0 80 24" fill="none" xmlns="http://www.w3.org/2000/svg">
<path fill-rule="evenodd" clip-rule="evenodd" d="M31.3677 20.547C33.6412 22.8489 36.5258 24 40.0213 24C43.46 24 46.3162 22.8489 48.5897 20.547C50.8632 18.1883 52 15.3322 52 11.9787C52 8.68206 50.8632 5.85435 48.5897 3.49556C46.3446 1.16518 43.4885 0 40.0213 0C36.4973 0 33.6128 1.16518 31.3677 3.49556C29.1226 5.76909 28 8.5968 28 11.9787C28 15.3606 29.1226 18.2167 31.3677 20.547ZM40.0213 3.79397C41.6822 3.79397 43.1548 4.26054 44.4392 5.19373C46.7428 6.6468 48.2731 9.21429 48.2731 12.1392C48.2731 15.8699 45.7835 19.0191 42.375 20.016C43.5695 19.5191 44.6267 18.7584 45.4739 17.8066H37.0103V19.6526C36.0693 19.2476 35.2115 18.6364 34.4369 17.8188C32.9023 16.1989 32.135 14.2522 32.135 11.9787C32.135 9.73357 32.9023 7.81528 34.4369 6.2238C35.9716 4.60391 37.833 3.79397 40.0213 3.79397ZM46.6423 8.15278C47.062 8.94504 47.3605 9.81141 47.5131 10.7271H44.7334V8.15278H46.6423ZM47.2726 14.5887C46.9924 15.5245 46.5558 16.3927 45.9933 17.1631H39.5846V14.5887H47.2726ZM47.4379 13.9451C47.5634 13.363 47.6296 12.7588 47.6296 12.1392C47.6296 11.8802 47.6179 11.6239 47.5954 11.3707H42.159V13.9451H47.4379Z" fill="#208458"/>
<g opacity="0.25">
<path fill-rule="evenodd" clip-rule="evenodd" d="M2.24511 17.698C3.7608 19.2326 5.68384 20 8.01421 20C10.3067 20 12.2108 19.2326 13.7265 17.698C15.2421 16.1255 16 14.2214 16 11.9858C16 9.78804 15.2421 7.9029 13.7265 6.33037C12.2297 4.77679 10.3256 4 8.01421 4C5.66489 4 3.74186 4.77679 2.24511 6.33037C0.748371 7.84606 0 9.7312 0 11.9858C0 14.2404 0.748371 16.1445 2.24511 17.698ZM8.01421 6.52931C9.12146 6.52931 10.1032 6.84036 10.9594 7.46249C12.4952 8.4312 13.5154 10.1429 13.5154 12.0928C13.5154 14.5799 11.8557 16.6794 9.58335 17.344C10.3797 17.0127 11.0845 16.5056 11.6492 15.8711H6.00685V17.1018C5.3795 16.8317 4.80765 16.4243 4.2913 15.8792C3.26821 14.7993 2.75666 13.5015 2.75666 11.9858C2.75666 10.489 3.26821 9.21019 4.2913 8.1492C5.31439 7.06927 6.55535 6.52931 8.01421 6.52931ZM12.4282 9.43519C12.708 9.96336 12.907 10.5409 13.0087 11.1514H11.1556V9.43519H12.4282ZM12.8484 13.7258C12.6616 14.3497 12.3706 14.9285 11.9955 15.442H7.72309V13.7258H12.8484ZM12.9586 13.2967C13.0423 12.9087 13.0864 12.5059 13.0864 12.0928C13.0864 11.9201 13.0786 11.7492 13.0636 11.5805H9.43934V13.2967H12.9586Z" fill="#208458"/>
</g>
<g opacity="0.5">
<path fill-rule="evenodd" clip-rule="evenodd" d="M66.2451 17.698C67.7608 19.2326 69.6838 20 72.0142 20C74.3067 20 76.2108 19.2326 77.7265 17.698C79.2421 16.1255 80 14.2214 80 11.9858C80 9.78804 79.2421 7.9029 77.7265 6.33037C76.2297 4.77679 74.3256 4 72.0142 4C69.6649 4 67.7419 4.77679 66.2451 6.33037C64.7484 7.84606 64 9.7312 64 11.9858C64 14.2404 64.7484 16.1445 66.2451 17.698ZM72.0142 6.52931C73.1215 6.52931 74.1032 6.84036 74.9594 7.46249C76.4952 8.4312 77.5154 10.1429 77.5154 12.0928C77.5154 14.5799 75.8557 16.6794 73.5834 17.344C74.3797 17.0127 75.0845 16.5056 75.6492 15.8711H70.0068V17.1018C69.3795 16.8317 68.8076 16.4243 68.2913 15.8792C67.2682 14.7993 66.7567 13.5015 66.7567 11.9858C66.7567 10.489 67.2682 9.21019 68.2913 8.1492C69.3144 7.06927 70.5554 6.52931 72.0142 6.52931ZM76.4282 9.43519C76.708 9.96336 76.907 10.5409 77.0087 11.1514H75.1556V9.43519H76.4282ZM76.8484 13.7258C76.6616 14.3497 76.3706 14.9285 75.9955 15.442H71.7231V13.7258H76.8484ZM76.9586 13.2967C77.0423 12.9087 77.0864 12.5059 77.0864 12.0928C77.0864 11.9201 77.0786 11.7492 77.0636 11.5805H73.4393V13.2967H76.9586Z" fill="#208458"/>
</g>
</svg>
