<svg width="12" height="15" viewBox="0 0 12 15" fill="none" xmlns="http://www.w3.org/2000/svg">
<path fill-rule="evenodd" clip-rule="evenodd" d="M0.5 5.35547C0.541147 2.35842 3.00292 -0.0384546 6 0.000467497C8.99708 -0.0384546 11.4589 2.35842 11.5 5.35547C11.4987 6.51925 11.1119 7.64983 10.4 8.57047L6 15.0005L1.6 8.57047C0.888085 7.64983 0.501264 6.51925 0.5 5.35547ZM10.5 5.35547C10.4535 2.91305 8.44263 0.967013 6 1.00047C3.55737 0.967013 1.54654 2.91305 1.5 5.35547C1.49927 6.31655 1.82547 7.2493 2.425 8.00047L6 13.2305L9.605 7.96047C10.1853 7.21612 10.5003 6.29927 10.5 5.35547ZM6 4C6.82843 4 7.5 4.67157 7.5 5.5C7.5 6.32843 6.82843 7 6 7C5.17157 7 4.5 6.32843 4.5 5.5C4.5 4.67157 5.17157 4 6 4ZM3.5 5.5C3.5 4.11929 4.61929 3 6 3C7.38071 3 8.5 4.11929 8.5 5.5C8.5 6.88071 7.38071 8 6 8C4.61929 8 3.5 6.88071 3.5 5.5Z" fill="#555354"/>
</svg>
