<svg width="16" height="16" viewBox="0 0 16 16" fill="none" xmlns="http://www.w3.org/2000/svg">
<path fill-rule="evenodd" clip-rule="evenodd" d="M2.5 6.35547C2.54115 3.35842 5.00292 0.961545 8 1.00047C10.9971 0.961545 13.4589 3.35842 13.5 6.35547C13.4987 7.51925 13.1119 8.64983 12.4 9.57047L8 16.0005L3.6 9.57047C2.88809 8.64983 2.50126 7.51925 2.5 6.35547ZM12.5 6.35547C12.4535 3.91305 10.4426 1.96701 8 2.00047C5.55737 1.96701 3.54654 3.91305 3.5 6.35547C3.49927 7.31655 3.82547 8.2493 4.425 9.00047L8 14.2305L11.605 8.96047C12.1853 8.21612 12.5003 7.29927 12.5 6.35547ZM8 5C8.82843 5 9.5 5.67157 9.5 6.5C9.5 7.32843 8.82843 8 8 8C7.17157 8 6.5 7.32843 6.5 6.5C6.5 5.67157 7.17157 5 8 5ZM5.5 6.5C5.5 5.11929 6.61929 4 8 4C9.38071 4 10.5 5.11929 10.5 6.5C10.5 7.88071 9.38071 9 8 9C6.61929 9 5.5 7.88071 5.5 6.5Z" fill="white"/>
</svg>
