<svg width="19" height="19" viewBox="0 0 19 19" fill="none" xmlns="http://www.w3.org/2000/svg">
<path fill-rule="evenodd" clip-rule="evenodd" d="M16.875 4.375H6.25C5.21489 4.37603 4.37603 5.21489 4.375 6.25V13.125C4.37603 14.1601 5.21489 14.999 6.25 15H10V13.75H6.25C5.90482 13.75 5.625 13.4702 5.625 13.125V6.25C5.62534 5.90496 5.90496 5.62534 6.25 5.625H16.875C17.2202 5.625 17.5 5.90482 17.5 6.25V13.125C17.5 13.4702 17.2202 13.75 16.875 13.75H13.625L10.625 18.0337L11.6494 18.75L14.2756 15H16.875C17.9101 14.999 18.749 14.1601 18.75 13.125V6.25C18.749 5.21489 17.9101 4.37603 16.875 4.375ZM1.875 10.625H0.625V2.5C0.626034 1.46489 1.46489 0.626034 2.5 0.625H10.625V1.875H2.5C2.15496 1.87534 1.87534 2.15496 1.875 2.5V10.625Z" fill="#8E8D8D"/>
</svg>
