<svg width="12" height="14" viewBox="0 0 12 14" fill="none" xmlns="http://www.w3.org/2000/svg">
<path fill-rule="evenodd" clip-rule="evenodd" d="M10.5 0H1.5C0.947944 0.00055123 0.500551 0.447944 0.5 1V13.5C0.5 13.7761 0.723858 14 1 14H1.5C1.6574 14.0001 1.80562 13.926 1.9 13.8L3 12.3335L4.1 13.8C4.1983 13.9198 4.34507 13.9892 4.5 13.9892C4.65493 13.9892 4.8017 13.9198 4.9 13.8L6 12.3335L7.1 13.8C7.1983 13.9198 7.34507 13.9892 7.5 13.9892C7.65493 13.9892 7.8017 13.9198 7.9 13.8L9 12.3335L10.1 13.8C10.1944 13.9259 10.3426 14 10.5 14H11C11.2761 14 11.5 13.7761 11.5 13.5V1C11.4994 0.447944 11.0521 0.00055123 10.5 0ZM10.5 12.6665L9.4 11.2C9.3017 11.0802 9.15493 11.0108 9 11.0108C8.84507 11.0108 8.6983 11.0802 8.6 11.2L7.5 12.6665L6.4 11.2C6.3017 11.0802 6.15493 11.0108 6 11.0108C5.84507 11.0108 5.6983 11.0802 5.6 11.2L4.5 12.6665L3.4 11.2C3.3017 11.0802 3.15493 11.0108 3 11.0108C2.84507 11.0108 2.6983 11.0802 2.6 11.2L1.5 12.6665V1H10.5V12.6665ZM9.5 7H8.5V8H9.5V7ZM2.5 7H6.5V8H2.5V7ZM9.5 5H8.5V6H9.5V5ZM2.5 5H6.5V6H2.5V5ZM9.5 3H2.5V4H9.5V3Z" fill="#555354"/>
</svg>
