<svg width="484" height="120" viewBox="0 0 484 120" fill="none" xmlns="http://www.w3.org/2000/svg">
<path d="M405.101 0V89.8694H392.368V0H405.101Z" fill="white"/>
<path d="M284.491 91.4552C279.008 91.4552 273.879 90.1337 269.104 87.4907C264.418 84.8476 260.748 81.0593 258.095 76.1256L267.247 69.1216C269.193 72.7337 271.757 75.5089 274.941 77.4471C278.212 79.3854 281.528 80.3545 284.889 80.3545C288.603 80.3545 291.609 79.4294 293.908 77.5793C296.296 75.6411 297.49 73.3064 297.49 70.5752C297.49 66.7869 295.323 63.7914 290.99 61.5889C289.841 60.9722 286.878 59.6507 282.103 57.6244C277.682 55.7742 274.764 54.4527 273.349 53.6598C266.098 49.6953 262.472 43.9687 262.472 36.4801C262.472 30.7535 264.594 26.0401 268.839 22.3398C272.995 18.5515 278.61 16.6573 285.685 16.6573C290.283 16.6573 294.616 17.6264 298.684 19.5647C302.751 21.5029 305.935 24.2781 308.234 27.8902L300.143 35.555C296.252 30.0927 291.167 27.3616 284.889 27.3616C281.794 27.3616 279.318 28.1986 277.461 29.8725C275.604 31.4583 274.675 33.4846 274.675 35.9515C274.675 39.6517 276.665 42.4269 280.644 44.277L288.47 47.713C292.715 49.3869 295.898 50.8406 298.02 52.074C306.067 56.1266 310.091 62.0735 310.091 69.9145C310.091 75.9935 307.703 81.1033 302.928 85.2441C298.065 89.3848 291.919 91.4552 284.491 91.4552Z" fill="white"/>
<path d="M217.127 89.8694H229.861V52.3383C229.861 44.9378 231.629 39.2553 235.166 35.2907C238.792 31.3262 243.523 29.3439 249.359 29.3439C251.747 29.3439 254.223 29.7403 256.787 30.5332L257.981 18.2431C254.974 17.5383 252.189 17.1859 249.624 17.1859C240.163 17.1859 233.354 21.2826 229.197 29.476V19.036H217.127V89.8694Z" fill="white"/>
<path d="M153.868 83.394C159.439 88.8562 166.868 91.5874 176.153 91.5874C185.614 91.5874 193.042 88.9003 198.436 83.5261C203.919 78.152 206.66 70.7514 206.66 61.3246V19.036H194.059V60.9282C194.059 66.7428 192.468 71.3681 189.284 74.8041C186.101 78.1519 181.724 79.8259 176.153 79.8259C170.582 79.8259 166.204 78.1519 163.021 74.8041C159.926 71.3681 158.378 66.7428 158.378 60.9282V19.036H145.645V61.3246C145.645 70.5752 148.386 77.9317 153.868 83.394Z" fill="white"/>
<path fill-rule="evenodd" clip-rule="evenodd" d="M385.27 59.6066C385.535 56.1707 385.668 54.0122 385.668 53.1312C385.668 42.1186 382.44 33.3965 375.985 26.9652C369.618 20.5338 361.394 17.3181 351.313 17.3181C340.702 17.3181 332.036 20.7981 325.315 27.7581C318.683 34.8062 315.367 43.6163 315.367 54.1884C315.367 58.9459 316.119 63.4831 317.622 67.8C319.125 72.117 321.336 76.0816 324.254 79.6937C327.172 83.3059 331.107 86.1692 336.059 88.2836C341.1 90.398 346.848 91.4552 353.303 91.4552C358.962 91.4552 364.533 90.5302 370.016 88.68C375.499 86.7418 380.097 84.3631 383.811 81.5438L378.372 71.8968C375.101 74.2755 371.21 76.2137 366.7 77.7114C362.19 79.121 357.813 79.8259 353.568 79.8259C346.406 79.8259 340.746 78.0198 336.59 74.4076C332.434 70.7955 329.781 65.8618 328.631 59.6066H385.27ZM372.536 48.638H328.631C329.693 42.7353 332.301 37.9337 336.457 34.2335C340.614 30.4451 345.565 28.551 351.313 28.551C357.238 28.551 362.146 30.4011 366.037 34.1013C370.016 37.7135 372.183 42.5591 372.536 48.638Z" fill="white"/>
<path d="M469.516 19.036L450.415 72.161L428.396 19.036H413.673L444.579 89.6051L441.926 95.8162C438.389 104.098 433.702 108.238 427.866 108.238C425.301 108.238 422.427 107.534 419.244 106.124L417.652 117.225C420.747 119.075 424.55 120 429.06 120C434.719 120 439.494 118.238 443.385 114.714C447.364 111.278 450.813 105.639 453.731 97.7985L483.576 19.036H469.516Z" fill="white"/>
<path d="M37.5379 91.4253C26.4844 91.4253 17.4646 87.9453 10.4788 80.9853C3.49293 74.0253 0 65.1711 0 54.4228C0 43.6744 3.53714 34.7762 10.6114 27.7281C17.6857 20.7681 26.8823 17.2881 38.2011 17.2881C45.187 17.2881 51.5981 18.9621 57.4344 22.3099C59.7672 23.6281 61.8533 25.1239 63.6925 26.7972C63.2348 27.2252 62.785 27.6677 62.3432 28.1246C59.7556 30.7352 57.6473 33.5815 56.0182 36.6634C54.3961 34.9865 52.5691 33.5498 50.5369 32.3534C46.7345 30.0628 42.6226 28.9175 38.2011 28.9175C30.95 28.9175 24.8926 31.3403 20.0291 36.1858C15.2539 41.1195 12.8664 47.1985 12.8664 54.4228C12.8664 61.559 15.2097 67.5939 19.8964 72.5276C24.4947 77.3731 30.3752 79.7959 37.5379 79.7959C41.9594 79.7959 46.2039 78.6066 50.2716 76.2278C52.4227 74.9967 54.2895 73.5886 55.872 72.0035C57.5205 75.2347 59.6776 78.2287 62.3432 80.9853C62.6513 81.2961 62.963 81.6002 63.2784 81.8974C61.3839 83.586 59.2591 85.088 56.9038 86.4035C50.8906 89.7513 44.4354 91.4253 37.5379 91.4253Z" fill="white"/>
<path d="M124.638 50.1119C124.164 47.2663 123.237 44.574 121.932 42.1119H116V50.1119H124.638Z" fill="white"/>
<path d="M119.915 70.1119C121.663 67.718 123.02 65.0199 123.891 62.1119H100V70.1119H119.915Z" fill="white"/>
<path d="M124.405 60.1119C124.795 58.3031 125 56.4255 125 54.5C125 53.6951 124.964 52.8986 124.894 52.1119H108V60.1119H124.405Z" fill="white"/>
<path fill-rule="evenodd" clip-rule="evenodd" d="M101.357 91.3582C90.4943 91.3582 81.5304 87.7815 74.4653 80.628C67.4884 73.3862 64 64.5106 64 54.0012C64 43.4918 67.4884 34.7045 74.4653 27.6393C81.4421 20.3976 90.406 16.7767 101.357 16.7767C112.131 16.7767 121.007 20.3976 127.984 27.6393C135.049 34.9694 138.582 43.7567 138.582 54.0012C138.582 64.4223 135.049 73.2979 127.984 80.628C120.919 87.7815 112.043 91.3582 101.357 91.3582ZM115.086 32.9165C111.095 30.0166 106.518 28.5667 101.357 28.5667C94.5568 28.5667 88.7722 31.0836 84.0032 36.1175C79.2342 41.0631 76.8498 47.0244 76.8498 54.0012C76.8498 61.0664 79.2342 67.1159 84.0032 72.1498C86.4101 74.6904 89.0757 76.5899 92 77.8483V72.1119H118.301C115.669 75.0696 112.383 77.4336 108.671 78.9778C119.263 75.8797 127 66.0934 127 54.5C127 45.4107 122.244 37.432 115.086 32.9165Z" fill="white"/>
</svg>
